<?xml version="1.0" standalone="no"?><!DOCTYPE svg PUBLIC "-//W3C//DTD SVG 1.1//EN" "http://www.w3.org/Graphics/SVG/1.1/DTD/svg11.dtd"><svg t="1673064371612" class="icon" viewBox="0 0 1024 1024" version="1.1" xmlns="http://www.w3.org/2000/svg" p-id="2019" xmlns:xlink="http://www.w3.org/1999/xlink" width="200" height="200"><path d="M1021.76 400.16c0-36.256-29.344-65.568-65.536-65.568-36.192 0-65.536 29.312-65.536 65.568 0 17.216 6.72 32.832 17.6 44.544l-27.264 46.208c-4.512-0.992-9.184-1.568-14.016-1.568-26.496 0-49.248 15.744-59.584 38.4l-64.928 0c-9.6-20.992-29.888-36.064-53.92-38.08l-28.256-48.288c9.12-11.328 14.624-25.632 14.624-41.216 0-14.976-5.056-28.672-13.472-39.68l28.864-49.152c0.768 0.032 1.536 0.096 2.336 0.096 36.192 0 65.504-29.312 65.504-65.504 0-36.192-29.312-65.536-65.504-65.536-36.192 0-65.536 29.344-65.536 65.536 0 14.08 4.512 27.136 12.096 37.856l-29.44 50.848c-0.128 0-0.256 0-0.416 0-26.752 0-49.696 16.032-59.872 38.944l-72.896 0.416c-10.08-23.136-33.088-39.264-59.904-39.328l-28.736-49.632c11.328-11.808 18.336-27.776 18.336-45.44 0-15.168-5.152-28.992-13.792-40.128l27.104-46.72c34.752-1.6 62.464-30.208 62.464-65.408 0-36.192-29.344-65.504-65.536-65.504s-65.536 29.312-65.536 65.504c0 16.352 6.016 31.264 15.904 42.72l-25.984 44c-0.032 0-0.096 0-0.16 0-27.84 0-51.552 17.408-61.056 41.92L204.288 215.968c-10.912-21.088-32.864-35.52-58.208-35.52-36.192 0-65.568 29.344-65.568 65.536 0 36.192 29.376 65.504 65.568 65.504 25.152 0 46.976-14.144 57.984-35.008l82.56 0c10.144 14.912 26.336 25.344 45.024 27.968l32.96 55.872c-8.512 11.072-13.6 24.832-13.6 39.904 0 15.744 5.6 30.208 14.88 41.504l-28.224 47.84c-25.152 1.152-46.592 16.512-56.512 38.24L205.664 527.808c-10.336-22.656-33.088-38.4-59.584-38.4-36.192 0-65.568 29.376-65.568 65.568 0 15.808 5.664 30.368 15.04 41.728l-28.608 49.952c-35.136 1.184-63.264 29.984-63.264 65.408 0 36.192 29.344 65.536 65.536 65.536 36.192 0 65.536-29.344 65.536-65.536 0-15.808-5.568-30.272-14.88-41.568l28.512-50.08c23.008-0.832 42.944-13.472 54.016-32.064l82.048 0c10.24 17.248 28.128 29.408 49.024 31.712l30.592 52.864c-8.16 10.912-13.056 24.416-13.056 39.136 0 16.352 6.016 31.296 15.936 42.752l-30.4 52.544c-34.208 2.176-61.28 30.528-61.28 65.28 0 36.224 29.312 65.568 65.504 65.568 36.192 0 65.536-29.344 65.536-65.568 0-16.96-6.464-32.32-17.024-43.936l16.064-27.744c0 0 0.032 0.032 0.064 0.064l13.632-23.52c24.384-0.896 45.312-15.104 55.808-35.488l76.288 0c10.528 20.544 31.584 34.688 56.064 35.488l28.672 49.6c-11.456 11.776-18.528 27.84-18.528 45.568 0 36.224 29.344 65.568 65.568 65.568 36.192 0 65.536-29.344 65.536-65.568 0-33.92-25.856-61.856-58.88-65.152l-30.432-52.8c9.856-11.456 15.808-26.304 15.808-42.592 0-14.784-4.928-28.32-13.184-39.328l30.848-53.024c19.84-2.944 36.768-14.784 46.624-31.392l71.488 0c11.424 19.232 32.352 32.192 56.32 32.192 36.224 0 65.536-29.344 65.536-65.536 0-9.632-2.112-18.752-5.856-26.976l35.936-62.592C995.808 462.112 1021.76 434.144 1021.76 400.16zM609.376 648.736c-26.976 0-50.112 13.984-60.192 37.248l-72.512 0c-10.048-23.296-33.216-39.52-60.16-39.52-0.768 0-1.536 0.064-2.336 0.096l-26.24-46.24c11.328-11.744 18.336-27.808 18.336-45.408 0-16.672-6.272-31.904-16.544-43.424l26.528-45.856c0.096 0 0.16 0.032 0.256 0.032 25.408 0 47.392-14.496 58.272-35.648l76.288 0c10.496 20.48 31.424 34.624 55.776 35.488l26.528 46.432c-9.984 11.52-16.064 26.528-16.064 42.976 0 17.856 7.168 35.2 18.752 47.04l-26.592 46.816C609.472 648.736 609.408 648.736 609.376 648.736z" p-id="2020"></path></svg>