<?xml version="1.0" standalone="no"?><!DOCTYPE svg PUBLIC "-//W3C//DTD SVG 1.1//EN" "http://www.w3.org/Graphics/SVG/1.1/DTD/svg11.dtd"><svg t="1673064594745" class="icon" viewBox="0 0 1024 1024" version="1.1" xmlns="http://www.w3.org/2000/svg" p-id="4868" xmlns:xlink="http://www.w3.org/1999/xlink" width="200" height="200"><path d="M650.4448 275.2512c-3.1744 99.5328-133.0176 256.9216-133.0176 256.9216S391.68 366.7968 394.8544 267.264c3.1744-99.328 62.7712-178.176 133.3248-175.9232 70.7584 2.1504 125.3376 84.5824 122.2656 183.9104z m0 0M270.1312 345.4976c96.3584 25.3952 221.0816 186.88 221.0816 186.88S300.9536 617.0624 204.8 591.6672c-96.768-25.6-160.3584-101.1712-142.4384-169.1648 18.2272-67.8912 111.2064-102.4 207.7696-77.0048z m0 0M260.1984 696.32c55.296-82.6368 248.832-148.6848 248.832-148.6848s19.1488 206.7456-35.5328 289.3824c-55.296 83.2512-147.456 118.784-206.6432 80.0768-58.7776-38.8096-61.5424-137.728-6.656-220.7744z m0 0M579.4816 838.0416c-56.2176-82.2272-43.8272-285.3888-43.8272-285.3888s199.3728 60.5184 255.3856 142.5408c56.0128 82.432 54.272 180.8384-4.3008 220.8768-58.4704 39.1168-151.4496 4.3008-207.2576-78.0288z m0 0M832.1024 576.8192c-95.9488 27.0336-285.9008-48.4352-285.9008-48.4352s120.5248-169.2672 216.2688-196.5056c96.3584-26.8288 189.8496 5.7344 208.9984 73.6256 19.3536 67.6864-43.3152 144.384-139.3664 171.3152z m0 0"  p-id="4869"></path></svg>