<?xml version="1.0" standalone="no"?><!DOCTYPE svg PUBLIC "-//W3C//DTD SVG 1.1//EN" "http://www.w3.org/Graphics/SVG/1.1/DTD/svg11.dtd"><svg t="1671624330954" class="icon" viewBox="0 0 1024 1024" version="1.1" xmlns="http://www.w3.org/2000/svg" p-id="9288" xmlns:xlink="http://www.w3.org/1999/xlink" width="200" height="200"><path d="M285 705.5h520.6V640H260.2c-18.1 0-33.8 9.9-42.1 24.6v60.2c19.4-12.1 42.3-19.3 66.9-19.3z"  p-id="9289"></path><path d="M371.5 126h0.9c16.6 0 30.1-13.5 30.1-30.1S389 65.8 372.4 65.8h-0.9c-16.6 0-30.1 13.5-30.1 30.1s13.5 30.1 30.1 30.1zM303.8 266.5c0 16.6 13.5 30.1 30.1 30.1h351.7c16.6 0 30.1-13.5 30.1-30.1s-13.5-30.1-30.1-30.1H333.9c-16.6 0.1-30.1 13.5-30.1 30.1zM685.6 383.2H333.9c-16.6 0-30.1 13.5-30.1 30.1s13.5 30.1 30.1 30.1h351.7c16.6 0 30.1-13.5 30.1-30.1s-13.5-30.1-30.1-30.1zM685.6 524.2H333.9c-16.6 0-30.1 13.5-30.1 30.1s13.5 30.1 30.1 30.1h351.7c16.6 0 30.1-13.5 30.1-30.1s-13.5-30.1-30.1-30.1z"  p-id="9290"></path><path d="M285 765.7h550.7c16.6 0 30.1-13.5 30.1-30.1V159.9c0-51.9-42.2-94.1-94.1-94.1H459.9c-16.6 0-30.1 13.5-30.1 30.1s13.5 30.1 30.1 30.1h311.7c18.7 0 33.9 15.2 33.9 33.9v545.6H285c-24.6 0-47.4 7.1-66.9 19.2V159.9c0-18.7 15.2-33.9 33.9-33.9h35.9c16.6 0 30.1-13.5 30.1-30.1s-13.5-30.1-30.1-30.1H252c-51.9 0-94.1 42.2-94.1 94.1v672.7c0 70.1 57 127.1 127.1 127.1h550.7c16.6 0 30.1-13.5 30.1-30.1s-13.5-30.1-30.1-30.1H285c-36.9 0-66.9-30-66.9-66.9s30-66.9 66.9-66.9z"  p-id="9291"></path></svg>
