<?xml version="1.0" standalone="no"?><!DOCTYPE svg PUBLIC "-//W3C//DTD SVG 1.1//EN" "http://www.w3.org/Graphics/SVG/1.1/DTD/svg11.dtd"><svg t="1671624476179" class="icon" viewBox="0 0 1024 1024" version="1.1" xmlns="http://www.w3.org/2000/svg" p-id="10010" xmlns:xlink="http://www.w3.org/1999/xlink" width="200" height="200"><path d="M724.05 512.98c-122.6 0-222.35-99.75-222.35-222.35S601.45 68.28 724.05 68.28 946.4 168.02 946.4 290.63s-99.74 222.35-222.35 222.35z m0-397.9c-96.8 0-175.55 78.75-175.55 175.55s78.75 175.56 175.55 175.56c96.81 0 175.56-78.76 175.56-175.56s-78.75-175.55-175.56-175.55z" p-id="10011"></path><path d="M713.07 939.63H165.88c-38.71 0-70.19-31.49-70.19-70.19V246.99c0-38.71 31.49-70.19 70.19-70.19h419.37l-17.43 34.06C555 235.9 548.5 262.75 548.5 290.63c0 96.8 78.75 175.56 175.55 175.56 10.14 0 20.49-0.99 31.63-3.02l27.59-5.02v411.29c0 38.7-31.48 70.19-70.2 70.19zM165.88 223.59c-12.9 0-23.4 10.49-23.4 23.4v622.44c0 12.9 10.49 23.4 23.4 23.4h547.19c12.9 0 23.4-10.5 23.4-23.4V512.61C608.35 520.2 501.7 417.36 501.7 290.63c0-23 3.48-45.44 10.38-67.03h-346.2z" p-id="10012"></path><path d="M248.27 380.06h199.81v46.8H248.27zM248.27 534.82H632.4v46.8H248.27zM248.27 689.58H632.4v46.8H248.27zM643.29 402.05L575.3 295.78l87.23-48.46 79.81-106.19 125.09 194.46-141.9 12.66-82.24 53.8z m-1.74-89.55l15.67 24.51 52.49-34.34 76.51-6.82-46.88-72.86-45.39 60.4-52.4 29.11z" p-id="10013"></path></svg>