<?xml version="1.0" standalone="no"?><!DOCTYPE svg PUBLIC "-//W3C//DTD SVG 1.1//EN" "http://www.w3.org/Graphics/SVG/1.1/DTD/svg11.dtd"><svg t="1673064803278" class="icon" viewBox="0 0 1024 1024" version="1.1" xmlns="http://www.w3.org/2000/svg" p-id="8303" xmlns:xlink="http://www.w3.org/1999/xlink" width="200" height="200"><path d="M531.8656 71.6288a69.6832 69.6832 0 0 1 95.7952-2.645333l2.781867 2.628266 163.7376 163.703467a69.7344 69.7344 0 0 1 2.6112 95.7952l-2.628267 2.781867-96.802133 96.768a34.133333 34.133333 0 0 1-50.261334-46.097067l1.9968-2.167467 96.768-96.768a1.467733 1.467733 0 0 0 0.341334-1.570133l-0.324267-0.477867-163.720533-163.703466a1.399467 1.399467 0 0 0-1.536-0.3072l-0.477867 0.341333-334.916267 334.865067a1.4336 1.4336 0 0 0-0.3072 1.570133l0.3072 0.477867 163.703467 163.6864c0.426667 0.426667 1.041067 0.529067 1.553067 0.324266l0.477866-0.3072 112.042667-112.042666a34.133333 34.133333 0 0 1 50.261333 46.08l-1.9968 2.184533-112.0256 112.0256a69.700267 69.700267 0 0 1-95.778133 2.645333l-2.781867-2.628266-163.720533-163.703467a69.700267 69.700267 0 0 1-2.628267-95.7952l2.628267-2.781867L531.8656 71.6288zM922.538667 887.125333a34.133333 34.133333 0 0 1 2.56 68.164267l-2.56 0.1024h-751.786667a34.133333 34.133333 0 0 1-2.525867-68.181333l2.542934-0.085334h751.7696z"  p-id="8304"></path><path d="M627.165867 516.317867a34.133333 34.133333 0 0 1 48.2816 0.4096c123.904 125.986133 108.202667 279.5008-43.946667 413.4912a34.133333 34.133333 0 0 1-45.124267-51.217067c124.177067-109.380267 135.304533-217.924267 40.3968-314.402133a34.133333 34.133333 0 0 1 0.392534-48.2816z"  p-id="8305"></path><path d="M604.808533 340.5312c-68.266667 0-123.613867 55.364267-123.613866 123.630933a123.613867 123.613867 0 1 0 247.2448 0c0-68.266667-55.3472-123.630933-123.630934-123.630933z m0 68.266667a55.364267 55.364267 0 1 1 0 110.7456 55.364267 55.364267 0 0 1 0-110.7456z"  p-id="8306"></path><path d="M135.0656 530.5344l204.8 204.8L315.733333 759.466667a34.133333 34.133333 0 0 1-48.264533 0L110.933333 602.9312a34.133333 34.133333 0 0 1 0-48.264533l24.132267-24.132267z"  p-id="8307"></path></svg>