<?xml version="1.0" standalone="no"?><!DOCTYPE svg PUBLIC "-//W3C//DTD SVG 1.1//EN" "http://www.w3.org/Graphics/SVG/1.1/DTD/svg11.dtd"><svg t="1671626329125" class="icon" viewBox="0 0 1024 1024" version="1.1" xmlns="http://www.w3.org/2000/svg" p-id="2229" xmlns:xlink="http://www.w3.org/1999/xlink" width="200" height="200"><path d="M163.2656 477.792h277.44v64h-277.44zM1022.9456 984.32a30.24 30.24 0 0 0-0.704-5.056l-99.232-284.8 22.944-63.04h7.04a32 32 0 0 0 0-64h-286.08a32 32 0 0 0 0 64h6.56l23.136 63.52-98.88 283.968a85.12 85.12 0 0 1-1.856 10.624c0 0.448 0.224 0.832 0.224 1.28a31.008 31.008 0 0 0 0.96 4.608 31.808 31.808 0 0 0 1.984 7.584c0.416 0.896 1.152 1.6 1.664 2.432a31.648 31.648 0 0 0 5.536 7.424c0.64 0.608 1.536 0.96 2.24 1.504a31.424 31.424 0 0 0 8.384 4.96c0.224 0.096 0.32 0.256 0.544 0.32a184.864 184.864 0 0 1 10.464 1.92h362.56c0.544 0 1.056 0.224 1.6 0.224a31.872 31.872 0 0 0 10.56-1.792c0.544-0.192 0.928-0.64 1.472-0.896 0.832-0.32 1.44-0.928 2.24-1.312a31.616 31.616 0 0 0 8.096-5.44c0.512-0.544 0.832-1.216 1.312-1.792a31.744 31.744 0 0 0 5.44-8.096 32.864 32.864 0 0 0 0.96-3.552 31.296 31.296 0 0 0 1.696-8.352c0-0.352 0.192-0.64 0.192-1.024a30.176 30.176 0 0 0-1.056-5.216z m-349.984-26.784l87.712-251.968a59748.224 59748.224 0 0 1 1.536-11.008 31427.936 31427.936 0 0 0-1.696-11.2l-18.944-51.968h136.288l-18.912 51.968a30.08 30.08 0 0 0-0.576 3.744 24.288 24.288 0 0 0-0.128 13.696 29.984 29.984 0 0 0 0.544 3.872l88.128 252.896zM163.2656 318.624h408.512v64H163.2656z"  p-id="2230"></path><path d="M64.0016 125.792h136v41.92a26.464 26.464 0 0 0 26.464 26.496h427.072a26.464 26.464 0 0 0 26.464-26.496v-41.92h136v338.08h64V100.672a38.592 38.592 0 0 0-38.24-38.88H680.0016V28.672a26.464 26.464 0 0 0-26.464-26.464H226.4656a26.464 26.464 0 0 0-26.464 26.432v33.152H38.2416A38.592 38.592 0 0 0 0.0016 100.672v882.24a38.592 38.592 0 0 0 38.24 38.88H486.7216v-64H64.0016zM264.0016 66.24h352v64h-352z"  p-id="2231"></path></svg>
