<?xml version="1.0" standalone="no"?><!DOCTYPE svg PUBLIC "-//W3C//DTD SVG 1.1//EN" "http://www.w3.org/Graphics/SVG/1.1/DTD/svg11.dtd"><svg t="1671624822822" class="icon" viewBox="0 0 1070 1024" version="1.1" xmlns="http://www.w3.org/2000/svg" p-id="11873" xmlns:xlink="http://www.w3.org/1999/xlink" width="208.984375" height="200"><path d="M845.803922 820.705882H442.980392c-67.764706 0-122.980392-55.215686-122.980392-122.980392V250.980392c0-67.764706 55.215686-122.980392 122.980392-122.980392H476.862745c10.039216 0 18.823529 8.784314 18.82353 18.823529s-8.784314 18.823529-18.82353 18.82353h-33.882353c-47.686275 0-85.333333 38.901961-85.333333 85.333333v445.490196c0 47.686275 38.901961 85.333333 85.333333 85.333334h402.82353c47.686275 0 85.333333-38.901961 85.333333-85.333334V250.980392c0-47.686275-38.901961-85.333333-85.333333-85.333333H638.745098c-10.039216 0-18.823529-8.784314-18.823529-18.82353s8.784314-18.823529 18.823529-18.823529h207.058824c67.764706 0 122.980392 55.215686 122.980392 122.980392v445.490196c0 69.019608-55.215686 124.235294-122.980392 124.235294z"  p-id="11874"></path><path d="M564.705882 165.647059h-5.019607c-10.039216 0-18.823529-8.784314-18.82353-18.82353s8.784314-18.823529 18.82353-18.823529h5.019607c10.039216 0 18.823529 8.784314 18.82353 18.823529s-8.784314 18.823529-18.82353 18.82353zM707.764706 931.137255H304.941176c-67.764706 0-122.980392-55.215686-122.980392-122.980392V361.411765c0-67.764706 55.215686-122.980392 122.980392-122.980392 10.039216 0 18.823529 8.784314 18.82353 18.823529s-8.784314 18.823529-18.82353 18.823529c-47.686275 0-85.333333 38.901961-85.333333 85.333334v445.490196c0 47.686275 38.901961 85.333333 85.333333 85.333333h402.82353c47.686275 0 85.333333-38.901961 85.333333-85.333333 0-10.039216 8.784314-18.823529 18.82353-18.82353s18.823529 8.784314 18.823529 18.82353c0 67.764706-55.215686 124.235294-122.980392 124.235294zM680.156863 282.352941H448c-10.039216 0-18.823529-8.784314-18.823529-18.823529s8.784314-18.823529 18.823529-18.82353h232.156863c10.039216 0 18.823529 8.784314 18.823529 18.82353s-7.529412 18.823529-18.823529 18.823529z"  p-id="11875"></path><path d="M828.235294 382.745098H448c-10.039216 0-18.823529-8.784314-18.823529-18.823529s8.784314-18.823529 18.823529-18.82353H828.235294c10.039216 0 18.823529 8.784314 18.82353 18.82353s-7.529412 18.823529-18.82353 18.823529zM765.490196 569.72549H448c-10.039216 0-18.823529-8.784314-18.823529-18.823529s8.784314-18.823529 18.823529-18.82353H765.490196c10.039216 0 18.823529 8.784314 18.823529 18.82353s-8.784314 18.823529-18.823529 18.823529zM638.745098 479.372549H448c-10.039216 0-18.823529-8.784314-18.823529-18.823529s8.784314-18.823529 18.823529-18.82353h190.745098c10.039216 0 18.823529 8.784314 18.823529 18.82353s-8.784314 18.823529-18.823529 18.823529z"  p-id="11876"></path></svg>
