<?xml version="1.0" standalone="no"?><!DOCTYPE svg PUBLIC "-//W3C//DTD SVG 1.1//EN" "http://www.w3.org/Graphics/SVG/1.1/DTD/svg11.dtd"><svg t="1671623762216" class="icon" viewBox="0 0 1024 1024" version="1.1" xmlns="http://www.w3.org/2000/svg" p-id="5399" xmlns:xlink="http://www.w3.org/1999/xlink" width="200" height="200"><path d="M716.28944 421.324807a67.807183 67.807183 0 0 0 19.647511-24.402097c7.239349-15.179212 9.451071-41.024181 5.927729-69.135661-1.742405-13.864581-7.406726-46.923311-22.56637-54.139781-1.85138-0.884147-3.973393-1.31162-6.519267-1.311621-19.460868 0-79.17496 31.592979-97.491585 61.91588-32.46087-15.17289-67.171693-22.887878-103.290468-22.887878-37.26332 0-72.986834 8.174672-106.277062 24.302152-17.233492-30.737731-78.535255-63.330455-98.298364-63.330455-2.539552 0-4.670897 0.427473-6.525589 1.311621-15.137368 7.216771-20.811021 40.275501-22.556738 54.139781-3.523342 28.11148-1.301987 53.95645 5.924418 69.135661a67.336361 67.336361 0 0 0 22.190073 26.266422c-23.806946 34.926366-39.143901 63.362365-39.143901 113.230124 0 126.747308 100.616052 215.244796 244.687163 215.244796 144.070509 0 244.693183-88.50381 244.693183-215.244796 0.012945-50.934334-15.847515-79.701474-40.400733-115.094148z m-132.273151 9.023297c10.839757 0 19.628245 8.779156 19.634867 19.6153 0 10.836446-8.782166 19.621923-19.621922 19.624933-10.833134 0.003311-19.621923-8.778854-19.621923-19.6153 0-10.833134 8.782166-19.618611 19.608978-19.624933z m-151.117194 0c10.832833 0 19.6153 8.782467 19.6153 19.6153 0 10.833134-8.782467 19.6153-19.6153 19.6153-10.833134 0.231498-19.801642-8.367637-20.030129-19.20047-0.228186-10.833134 8.367637-19.798933 19.200771-20.03013a17.312062 17.312062 0 0 1 0.829358 0z m-77.107735-41.779785c-10.138942 6.094804-17.548377 8.830633-23.945423 8.830633-11.270241 0-17.448733-8.351381-21.595524-15.629263-8.274316-14.581352-8.422125-56.692278 5.085726-64.394322 1.623495-0.929002 3.523041-1.372731 5.773297-1.372731 11.286497 0 43.197371 14.173145 52.172501 29.962861 11.945166 21.023553-1.353464 32.897976-17.490577 42.602822z m156.212252 306.969405c-72.739682 0-131.923045-47.518161-131.923044-105.913709 0-58.415416 59.183363-105.933277 131.923044-105.933277 72.732758 0 131.932377 47.51786 131.932378 105.933277 0 58.395548-59.199619 105.913709-131.932378 105.913709z m197.70244-313.768336c-4.133846 7.27156-10.325284 15.629263-21.589202 15.629263-6.403368 0-13.783903-2.732517-23.922845-8.830633-16.15638-9.711167-29.458322-21.585891-17.506533-42.602822 8.97483-15.783695 40.902261-29.962861 52.16618-29.962861 2.2632 0 4.153113 0.443729 5.760352 1.359787 13.53344 7.702345 13.391953 49.826216 5.092048 64.407266z"  p-id="5400"></path><path d="M844.341144 822.959055c-2.639496-9.502549-2.639496-19.53402-0.528321-29.036569 19.534622-86.583191 30.09321-181.613192 30.09321-281.922486 0-100.309596-10.558588-195.867315-30.09321-281.922185-2.111176-9.503151-2.111176-19.53402 0.528321-29.037171l23.229555-86.05487c2.276746-7.902534-2.285175-16.151864-10.187709-18.424697a14.837233 14.837233 0 0 0-4.067016-0.581303c-1.056039 0-2.639798 0-4.223255 0.527719l-81.831615 21.645797c-5.279294 1.583758-10.558588 2.111778-15.838484 2.111778-5.278993 0-10.558588-0.52802-15.309562-2.111778-69.160949-18.478281-144.65693-28.509151-223.848747-28.50915s-154.687498 10.030869-224.376466 28.50915c-4.751575 1.583758-10.030568 2.111778-15.310164 2.111778s-10.558889-0.52802-15.838484-2.111778L175.435602 96.507493c-1.055738-0.527719-2.639496-0.527719-3.695536-0.527719-9.503151 0-16.894222 8.975131-14.254425 19.006l23.229556 86.05487c2.639798 9.503151 2.639798 19.53402 0.52802 29.037171-20.06204 86.05487-31.148948 181.612589-31.148949 281.922185 0 100.309295 10.558889 195.867616 30.092608 281.922486 2.111778 9.502549 2.111778 19.53402-0.52802 29.036569l-23.229254 86.05487c-2.639798 10.03117 4.751575 19.005699 14.254424 19.005699 1.055738 0 2.639798 0 4.223255-0.527418l81.831615-21.645496c5.279595-1.58436 10.558889-2.112079 15.838484-2.112079s10.558889 0.527719 15.310164 2.112079c69.688968 18.477679 145.184648 28.50885 224.376466 28.508849 79.191818 0 154.687799-10.03117 224.376466-28.508849 4.751274-1.58436 10.030568-2.112079 15.310163-2.112079s10.55919 0.527719 15.838183 2.112079l81.831616 21.645496c1.583758 0.527418 2.639496 0.527418 4.223254 0.527418 9.503151 0 16.894222-8.974529 14.255027-19.005699l-23.757575-86.05487z m-50.682969 13.726706l2.640099 10.03117c1.583758 5.807013-3.695536 10.558588-9.503151 8.97483l-5.807313-1.584059c-9.50285-2.640099-19.53402-3.695536-29.56519-3.695536-10.030568 0-19.533719 1.055738-29.036569 3.695536-66.521151 18.47798-137.265557 27.453111-210.122041 27.453111-72.856485 0-143.60089-8.975131-210.64976-26.925091-9.503151-2.640099-19.006-3.695536-29.037171-3.695536-10.030869 0-19.53402 1.055738-29.564588 3.695536l-5.279595 1.583758c-5.807314 1.583758-10.558889-3.695536-8.97483-8.97483l2.639798-10.030869c4.751575-17.422242 5.279294-36.428242 1.055738-54.378504-19.53402-85.526549-29.564588-176.861315-29.564588-270.835277 0-93.974262 10.030568-185.308426 29.037171-270.307859 4.223556-17.94966 3.695536-36.955961-1.05604-54.378203l-2.639797-10.558889c-1.583758-5.279294 3.695837-10.558889 9.50315-8.97483l5.807314 1.583758c9.503151 2.639798 19.53402 3.695837 29.564889 3.695837s19.53402-1.056039 29.037171-3.695837c66.52085-17.949961 137.265256-26.925092 210.12174-26.925091 72.856485 0 143.60089 8.975131 210.650362 26.925091 9.502549 2.639798 19.005699 3.695837 29.036568 3.695837s19.53402-1.056039 29.56489-3.695837l5.807313-1.583758c5.807615-1.583758 10.558889 3.695536 9.503151 9.503151l-2.640099 10.030869c-4.751274 17.422242-5.278993 36.428242-1.055738 54.378203 19.006 85.527151 29.036568 176.333296 29.036568 270.307859 0 93.973961-9.50285 185.308426-29.036568 270.307558-4.752177 17.949961-4.223857 36.95566 0.527116 54.377902z"  p-id="5401"></path></svg>
