<?xml version="1.0" standalone="no"?><!DOCTYPE svg PUBLIC "-//W3C//DTD SVG 1.1//EN" "http://www.w3.org/Graphics/SVG/1.1/DTD/svg11.dtd"><svg t="1673064749465" class="icon" viewBox="0 0 1024 1024" version="1.1" xmlns="http://www.w3.org/2000/svg" p-id="7256" xmlns:xlink="http://www.w3.org/1999/xlink" width="200" height="200"><path d="M674.133333 512l21.333334 8.533333 21.333333-38.4-17.066667-17.066666c8.533333-17.066667 12.8-38.4 12.8-59.733334s-4.266667-42.666667-12.8-59.733333l17.066667-17.066667-21.333333-38.4-21.333334 8.533334c-25.6-34.133333-64-55.466667-106.666666-59.733334l-8.533334-25.6h-42.666666l-4.266667 21.333334c-42.666667 8.533333-81.066667 29.866667-106.666667 64L384 290.133333l-21.333333 38.4 17.066666 17.066667c-8.533333 17.066667-12.8 38.4-12.8 59.733333s4.266667 42.666667 12.8 59.733334l-17.066666 17.066666 21.333333 38.4 21.333333-8.533333c25.6 34.133333 64 55.466667 106.666667 59.733333l4.266667 21.333334h42.666666l4.266667-21.333334c46.933333-4.266667 85.333333-25.6 110.933333-59.733333zM469.333333 204.8l4.266667-34.133333h128l4.266667 34.133333c25.6 8.533333 51.2 21.333333 68.266666 38.4l29.866667-12.8L776.533333 341.333333l-25.6 21.333334c4.266667 12.8 4.266667 25.6 4.266667 38.4s0 25.6-4.266667 38.4l25.6 21.333333-64 110.933333-29.866666-12.8c-21.333333 17.066667-42.666667 29.866667-68.266667 38.4l-12.8 42.666667h-128l-4.266667-34.133333c-25.6-8.533333-51.2-21.333333-68.266666-38.4l-29.866667 12.8L302.933333 469.333333l25.6-21.333333c-4.266667-12.8-4.266667-25.6-4.266666-38.4s0-25.6 4.266666-38.4L302.933333 341.333333l64-110.933333 29.866667 12.8c25.6-17.066667 46.933333-29.866667 72.533333-38.4z m170.666667 588.8V896h-42.666667v-132.266667c140.8-29.866667 247.466667-145.066667 256-290.133333h42.666667c-8.533333 149.333333-115.2 277.333333-256 320z m-213.333333 0c-140.8-42.666667-247.466667-170.666667-256-324.266667h42.666666c8.533333 145.066667 115.2 264.533333 256 290.133334V896h-42.666666v-102.4z m110.933333-302.933333c-46.933333 0-85.333333-38.4-85.333333-85.333334s38.4-85.333333 85.333333-85.333333 85.333333 38.4 85.333333 85.333333-34.133333 85.333333-85.333333 85.333334z m0-42.666667c25.6 0 42.666667-17.066667 42.666667-42.666667s-17.066667-42.666667-42.666667-42.666666-42.666667 17.066667-42.666667 42.666666 21.333333 42.666667 42.666667 42.666667z"  p-id="7257"></path></svg>