<?xml version="1.0" standalone="no"?><!DOCTYPE svg PUBLIC "-//W3C//DTD SVG 1.1//EN" "http://www.w3.org/Graphics/SVG/1.1/DTD/svg11.dtd"><svg t="1671625421610" class="icon" viewBox="0 0 1024 1024" version="1.1" xmlns="http://www.w3.org/2000/svg" p-id="15341" xmlns:xlink="http://www.w3.org/1999/xlink" width="200" height="200"><path d="M256 256h512v512H256z"  opacity=".1" p-id="15342"></path><path d="M896 928H128l-32-32V128l32-32h768l32 32v768l-32 32z m-736-64h704v-704h-704v704z"  p-id="15343"></path><path d="M384 480c-51.2 0-96-44.8-96-96S332.8 288 384 288c44.8 0 76.8 25.6 89.6 64h262.4v64H473.6c-12.8 38.4-44.8 64-89.6 64z m0-128c-19.2 0-32 12.8-32 32s12.8 32 32 32 32-12.8 32-32-12.8-32-32-32zM640 736c-44.8 0-76.8-25.6-89.6-64H288v-64h262.4c12.8-38.4 51.2-64 89.6-64 51.2 0 96 44.8 96 96s-44.8 96-96 96z m0-128c-19.2 0-32 12.8-32 32s12.8 32 32 32 32-12.8 32-32-12.8-32-32-32z"  p-id="15344"></path></svg>
