<?xml version="1.0" standalone="no"?><!DOCTYPE svg PUBLIC "-//W3C//DTD SVG 1.1//EN" "http://www.w3.org/Graphics/SVG/1.1/DTD/svg11.dtd"><svg t="1671625564598" class="icon" viewBox="0 0 1024 1024" version="1.1" xmlns="http://www.w3.org/2000/svg" p-id="15611" xmlns:xlink="http://www.w3.org/1999/xlink" width="200" height="200"><path d="M885.4 256.6H769.1V140.2c0-41.7-33.9-75.6-75.6-75.6H140.2c-41.7 0-75.6 33.9-75.6 75.6v551.7c0 41.7 33.9 75.6 75.6 75.6h116.4v116.4c0 41.7 33.9 75.6 75.6 75.6h553.2c41.7 0 75.6-33.9 75.6-75.6V332.2c0.1-41.7-33.9-75.6-75.6-75.6z m-628.8 447H140.2c-6.4 0-11.6-5.2-11.6-11.6V140.2c0-6.4 5.2-11.6 11.6-11.6h553.2c6.4 0 11.6 5.2 11.6 11.6v551.7c0 6.4-5.2 11.6-11.6 11.6H256.6z m640.5 180.3c0 6.4-5.2 11.6-11.6 11.6H332.2c-6.4 0-11.6-5.2-11.6-11.6V767.6h372.8c41.7 0 75.6-33.9 75.6-75.6V320.6h116.4c6.4 0 11.6 5.2 11.6 11.6v551.7z"  p-id="15612"></path><path d="M527.1 393c16.3-0.7 29.4-13.8 30.1-30.1 0.5-17.3-12.8-32.3-30.1-32.9h-69.6l83.2-86.4c12.2-12.8 11.6-32.3-0.6-44.6-12.5-12.1-32.4-11.8-44.6 0.6l-79.7 83-80.2-83c-12.3-12.3-32.3-12.8-44.6-0.6-12.3 12.3-12.8 32.3-0.6 44.6l83 86.3h-69.1c-16.3 0.7-29.4 13.8-30.1 30.1-0.5 17.3 12.8 32.3 30.1 32.9h79.6v55.7h-79.6c-16.3 0.7-29.4 13.8-30.1 30.1-0.5 17.3 12.8 32.3 30.1 32.9h79.6v100.9c0.7 16.3 13.8 29.4 30.1 30.1 17.3 0.5 32.3-12.8 32.9-30.1V511.7h80.2c16.3-0.7 29.4-13.8 30.1-30.1 0.5-17.3-12.8-32.3-30.1-32.9h-80.2V393h80.2z"  p-id="15613"></path></svg>
