<?xml version="1.0" standalone="no"?><!DOCTYPE svg PUBLIC "-//W3C//DTD SVG 1.1//EN" "http://www.w3.org/Graphics/SVG/1.1/DTD/svg11.dtd"><svg t="1671625637361" class="icon" viewBox="0 0 1024 1024" version="1.1" xmlns="http://www.w3.org/2000/svg" p-id="15961" xmlns:xlink="http://www.w3.org/1999/xlink" width="200" height="200"><path d="M880.179775 0H143.820225A97.797753 97.797753 0 0 0 46.022472 97.797753v828.404494a97.797753 97.797753 0 0 0 97.797753 97.797753h736.35955a97.797753 97.797753 0 0 0 97.797753-97.797753V97.797753a97.797753 97.797753 0 0 0-97.797753-97.797753z m17.258427 926.202247a17.258427 17.258427 0 0 1-17.258427 17.258427H143.820225a17.258427 17.258427 0 0 1-17.258427-17.258427V126.561798a17.258427 17.258427 0 0 1 17.258427-17.258427h736.35955a17.258427 17.258427 0 0 1 17.258427 17.258427z"  p-id="15962"></path><path d="M754.538427 796.418876H268.94382c-60.692135 0-58.160899 72.197753 0 72.197753h485.594607c64.488989 0.057528 55.629663-72.197753 0-72.197753zM267.045393 719.101124h201.923596c61.612584 0 53.155955-72.140225 0-72.140225h-201.923596c-57.988315-0.172584-55.572135 72.140225 0 72.140225z"  p-id="15963"></path><path d="M668.131236 487.493034a189.44 189.44 0 0 0-6.155506-224.762247l-126.561797 113.617977zM529.661124 189.842697v154.462921l113.733033-102.284944A189.209888 189.209888 0 0 0 529.661124 189.842697z"  p-id="15964"></path><path d="M512 569.52809a189.382472 189.382472 0 0 0 138.585169-60.289438L501.875056 384.28764l0.977978-1.208089h-0.977978V189.842697A189.842697 189.842697 0 0 0 512 569.52809z"  p-id="15965"></path></svg>
